{
  "accessors": [
    {
      "name": "objMesh_1_0_positions",
      "componentType": 5126,
      "count": 1765,
      "min": [
        -99.66405487060547,
        22.695283889770508,
        -114.78369140625
      ],
      "max": [
        121.99227142333984,
        497.1312255859375,
        120.11190032958984
      ],
      "type": "VEC3",
      "bufferView": 0,
      "byteOffset": 0
    },
    {
      "name": "objMesh_1_0_normals",
      "componentType": 5126,
      "count": 1765,
      "min": [
        -0.9997622966766357,
        -0.9998494386672974,
        -0.9999972581863403
      ],
      "max": [
        0.9997977614402771,
        0.9995241165161133,
        1
      ],
      "type": "VEC3",
      "bufferView": 1,
      "byteOffset": 0
    },
    {
      "name": "objMesh_1_0_texcoords",
      "componentType": 5126,
      "count": 1765,
      "min": [
        0.0046190000139176846,
        0.010847999714314938
      ],
      "max": [
        0.992106020450592,
        0.9939749836921692
      ],
      "type": "VEC2",
      "bufferView": 2,
      "byteOffset": 0
    },
    {
      "name": "objMesh_1_0_indices",
      "componentType": 5123,
      "count": 4530,
      "min": [
        0
      ],
      "max": [
        1764
      ],
      "type": "SCALAR",
      "bufferView": 3,
      "byteOffset": 0
    }
  ],
  "asset": {
    "generator": "obj2gltf",
    "version": "2.0"
  },
  "buffers": [
    {
      "name": "4_28_anim",
      "byteLength": 91644,
      "uri": "data:application/octet-stream;base64,"
    }
  ],
  "bufferViews": [
    {
      "name": "bufferView_0",
      "buffer": 0,
      "byteLength": 21180,
      "byteOffset": 0,
      "byteStride": 12,
      "target": 34962
    },
    {
      "name": "bufferView_1",
      "buffer": 0,
      "byteLength": 21180,
      "byteOffset": 21180,
      "byteStride": 12,
      "target": 34962
    },
    {
      "name": "bufferView_2",
      "buffer": 0,
      "byteLength": 14120,
      "byteOffset": 42360,
      "byteStride": 8,
      "target": 34962
    },
    {
      "name": "bufferView_3",
      "buffer": 0,
      "byteLength": 9060,
      "byteOffset": 56480,
      "target": 34963
    },
    {
      "buffer": 0,
      "byteOffset": 65540,
      "byteLength": 26104
    }
  ],
  "images": [
    {
      "name": "4_25_tex",
      "mimeType": "image/jpeg",
      "bufferView": 4
    }
  ],
  "materials": [
    {
      "name": "default",
      "pbrMetallicRoughness": {
        "baseColorTexture": {
          "index": 0
        },
        "baseColorFactor": [
          1,
          1,
          1,
          1
        ],
        "metallicFactor": 0,
        "roughnessFactor": 0.998
      },
      "emissiveFactor": [
        0,
        0,
        0
      ],
      "alphaMode": "OPAQUE",
      "doubleSided": false
    }
  ],
  "meshes": [
    {
      "name": "objMesh_1",
      "primitives": [
        {
          "attributes": {
            "POSITION": 0,
            "NORMAL": 1,
            "TEXCOORD_0": 2
          },
          "indices": 3,
          "material": 0,
          "mode": 4
        }
      ]
    }
  ],
  "nodes": [
    {
      "name": "objMesh",
      "mesh": 0
    }
  ],
  "samplers": [
    {
      "magFilter": 9729,
      "minFilter": 9986,
      "wrapS": 10497,
      "wrapT": 10497
    }
  ],
  "scene": 0,
  "scenes": [
    {
      "nodes": [
        0
      ]
    }
  ],
  "textures": [
    {
      "name": "4_25_tex",
      "sampler": 0,
      "source": 0
    }
  ]
}
