{
  "accessors": [
    {
      "name": "hair-Mesh_0_positions",
      "componentType": 5126,
      "count": 296,
      "min": [
        -99.66405487060547,
        247.674560546875,
        -85.64344787597656
      ],
      "max": [
        108.76304626464844,
        497.1312255859375,
        86.01013946533203
      ],
      "type": "VEC3",
      "bufferView": 0,
      "byteOffset": 0
    },
    {
      "name": "hair-Mesh_0_normals",
      "componentType": 5126,
      "count": 296,
      "min": [
        -0.9741183519363403,
        -0.8778405785560608,
        -0.9805682301521301
      ],
      "max": [
        0.9893817901611328,
        0.9952923059463501,
        1
      ],
      "type": "VEC3",
      "bufferView": 1,
      "byteOffset": 0
    },
    {
      "name": "hair-Mesh_0_texcoords",
      "componentType": 5126,
      "count": 296,
      "min": [
        0.004618972539901733,
        0.01084810495376587
      ],
      "max": [
        0.8477168083190918,
        0.5536855459213257
      ],
      "type": "VEC2",
      "bufferView": 2,
      "byteOffset": 0
    },
    {
      "name": "hair-Mesh_0_indices",
      "componentType": 5123,
      "count": 972,
      "min": [
        0
      ],
      "max": [
        295
      ],
      "type": "SCALAR",
      "bufferView": 3,
      "byteOffset": 0
    },
    {
      "name": "body-Mesh_0_positions",
      "componentType": 5126,
      "count": 845,
      "min": [
        -77.90975952148438,
        33.48188018798828,
        -114.78369140625
      ],
      "max": [
        121.99227142333984,
        400.36273193359375,
        120.11190032958984
      ],
      "type": "VEC3",
      "bufferView": 0,
      "byteOffset": 3552
    },
    {
      "name": "body-Mesh_0_normals",
      "componentType": 5126,
      "count": 845,
      "min": [
        -0.9997622966766357,
        -0.9964520931243896,
        -0.9999972581863403
      ],
      "max": [
        0.9997977614402771,
        0.9995241165161133,
        0.999838650226593
      ],
      "type": "VEC3",
      "bufferView": 1,
      "byteOffset": 3552
    },
    {
      "name": "body-Mesh_0_texcoords",
      "componentType": 5126,
      "count": 845,
      "min": [
        0.008577794767916203,
        0.014154136180877686
      ],
      "max": [
        0.7510581612586975,
        0.9935295581817627
      ],
      "type": "VEC2",
      "bufferView": 2,
      "byteOffset": 2368
    },
    {
      "name": "body-Mesh_0_indices",
      "componentType": 5123,
      "count": 2058,
      "min": [
        0
      ],
      "max": [
        844
      ],
      "type": "SCALAR",
      "bufferView": 3,
      "byteOffset": 1944
    },
    {
      "name": "kutu_l-Mesh_0_positions",
      "componentType": 5126,
      "count": 66,
      "min": [
        4.232311725616455,
        22.695283889770508,
        46.24989700317383
      ],
      "max": [
        50.44568634033203,
        88.8980484008789,
        119.44822692871094
      ],
      "type": "VEC3",
      "bufferView": 0,
      "byteOffset": 13692
    },
    {
      "name": "kutu_l-Mesh_0_normals",
      "componentType": 5126,
      "count": 66,
      "min": [
        -0.9759876132011414,
        -0.7659559845924377,
        -0.7322972416877747
      ],
      "max": [
        0.9734638333320618,
        0.9745942950248718,
        0.8071953058242798
      ],
      "type": "VEC3",
      "bufferView": 1,
      "byteOffset": 13692
    },
    {
      "name": "kutu_l-Mesh_0_texcoords",
      "componentType": 5126,
      "count": 66,
      "min": [
        0.8845968842506409,
        0.37404632568359375
      ],
      "max": [
        0.991458535194397,
        0.466575562953949
      ],
      "type": "VEC2",
      "bufferView": 2,
      "byteOffset": 9128
    },
    {
      "name": "kutu_l-Mesh_0_indices",
      "componentType": 5123,
      "count": 156,
      "min": [
        0
      ],
      "max": [
        65
      ],
      "type": "SCALAR",
      "bufferView": 3,
      "byteOffset": 6060
    },
    {
      "name": "kutu_r-Mesh_0_positions",
      "componentType": 5126,
      "count": 66,
      "min": [
        -50.44568634033203,
        52.017635345458984,
        -103.18161010742188
      ],
      "max": [
        -4.232311725616455,
        107.2837142944336,
        -55.13154220581055
      ],
      "type": "VEC3",
      "bufferView": 0,
      "byteOffset": 14484
    },
    {
      "name": "kutu_r-Mesh_0_normals",
      "componentType": 5126,
      "count": 66,
      "min": [
        -0.9734638333320618,
        -0.9998494386672974,
        -0.9999972581863403
      ],
      "max": [
        0.9759876132011414,
        0.9079396724700928,
        0.8894215226173401
      ],
      "type": "VEC3",
      "bufferView": 1,
      "byteOffset": 14484
    },
    {
      "name": "kutu_r-Mesh_0_texcoords",
      "componentType": 5126,
      "count": 66,
      "min": [
        0.8831507563591003,
        0.3726808428764343
      ],
      "max": [
        0.9917135238647461,
        0.4666830897331238
      ],
      "type": "VEC2",
      "bufferView": 2,
      "byteOffset": 9656
    },
    {
      "name": "kutu_r-Mesh_0_indices",
      "componentType": 5123,
      "count": 156,
      "min": [
        0
      ],
      "max": [
        65
      ],
      "type": "SCALAR",
      "bufferView": 3,
      "byteOffset": 6372
    },
    {
      "name": "zubon-Mesh_0_positions",
      "componentType": 5126,
      "count": 133,
      "min": [
        -54.759151458740234,
        81.75078582763672,
        -38.11792755126953
      ],
      "max": [
        54.759151458740234,
        152.7342071533203,
        53.15326690673828
      ],
      "type": "VEC3",
      "bufferView": 0,
      "byteOffset": 15276
    },
    {
      "name": "zubon-Mesh_0_normals",
      "componentType": 5126,
      "count": 133,
      "min": [
        -0.9156695008277893,
        -0.9903640151023865,
        -0.9959627389907837
      ],
      "max": [
        0.9203648567199707,
        0.8502612709999084,
        0.9895426034927368
      ],
      "type": "VEC3",
      "bufferView": 1,
      "byteOffset": 15276
    },
    {
      "name": "zubon-Mesh_0_texcoords",
      "componentType": 5126,
      "count": 133,
      "min": [
        0.734971284866333,
        0.4787502884864807
      ],
      "max": [
        0.9106027483940125,
        0.5716580152511597
      ],
      "type": "VEC2",
      "bufferView": 2,
      "byteOffset": 10184
    },
    {
      "name": "zubon-Mesh_0_indices",
      "componentType": 5123,
      "count": 300,
      "min": [
        0
      ],
      "max": [
        132
      ],
      "type": "SCALAR",
      "bufferView": 3,
      "byteOffset": 6684
    },
    {
      "name": "uwagi-Mesh_0_positions",
      "componentType": 5126,
      "count": 287,
      "min": [
        -90.17404174804688,
        82.51107788085938,
        -66.75086212158203
      ],
      "max": [
        106.86222076416016,
        263.5989074707031,
        91.69867706298828
      ],
      "type": "VEC3",
      "bufferView": 0,
      "byteOffset": 16872
    },
    {
      "name": "uwagi-Mesh_0_normals",
      "componentType": 5126,
      "count": 287,
      "min": [
        -0.993768036365509,
        -0.9880502223968506,
        -0.9967886209487915
      ],
      "max": [
        0.9978281259536743,
        0.8747467398643494,
        0.9823469519615173
      ],
      "type": "VEC3",
      "bufferView": 1,
      "byteOffset": 16872
    },
    {
      "name": "uwagi-Mesh_0_texcoords",
      "componentType": 5126,
      "count": 287,
      "min": [
        0.605591893196106,
        0.588092565536499
      ],
      "max": [
        0.9921061992645264,
        0.9939754009246826
      ],
      "type": "VEC2",
      "bufferView": 2,
      "byteOffset": 11248
    },
    {
      "name": "uwagi-Mesh_0_indices",
      "componentType": 5123,
      "count": 654,
      "min": [
        0
      ],
      "max": [
        286
      ],
      "type": "SCALAR",
      "bufferView": 3,
      "byteOffset": 7284
    },
    {
      "name": "mahu-Mesh_0_positions",
      "componentType": 5126,
      "count": 72,
      "min": [
        -56.64646530151367,
        216.51744079589844,
        -41.6746826171875
      ],
      "max": [
        55.26035690307617,
        277.2564697265625,
        57.122100830078125
      ],
      "type": "VEC3",
      "bufferView": 0,
      "byteOffset": 20316
    },
    {
      "name": "mahu-Mesh_0_normals",
      "componentType": 5126,
      "count": 72,
      "min": [
        -0.9008615016937256,
        -0.9990411996841431,
        -0.8850234746932983
      ],
      "max": [
        0.9154170751571655,
        0.9955488443374634,
        0.9768185019493103
      ],
      "type": "VEC3",
      "bufferView": 1,
      "byteOffset": 20316
    },
    {
      "name": "mahu-Mesh_0_texcoords",
      "componentType": 5126,
      "count": 72,
      "min": [
        0.9239262342453003,
        0.524498462677002
      ],
      "max": [
        0.981247067451477,
        0.7150969505310059
      ],
      "type": "VEC2",
      "bufferView": 2,
      "byteOffset": 13544
    },
    {
      "name": "mahu-Mesh_0_indices",
      "componentType": 5123,
      "count": 192,
      "min": [
        0
      ],
      "max": [
        71
      ],
      "type": "SCALAR",
      "bufferView": 3,
      "byteOffset": 8592
    }
  ],
  "asset": {
    "generator": "obj2gltf",
    "version": "2.0"
  },
  "buffers": [
    {
      "name": "4_28_anim",
      "byteLength": 91560,
      "uri": "data:application/octet-stream;base64,"
    }
  ],
  "bufferViews": [
    {
      "name": "bufferView_0",
      "buffer": 0,
      "byteLength": 21180,
      "byteOffset": 0,
      "byteStride": 12,
      "target": 34962
    },
    {
      "name": "bufferView_1",
      "buffer": 0,
      "byteLength": 21180,
      "byteOffset": 21180,
      "byteStride": 12,
      "target": 34962
    },
    {
      "name": "bufferView_2",
      "buffer": 0,
      "byteLength": 14120,
      "byteOffset": 42360,
      "byteStride": 8,
      "target": 34962
    },
    {
      "name": "bufferView_3",
      "buffer": 0,
      "byteLength": 8976,
      "byteOffset": 56480,
      "target": 34963
    },
    {
      "buffer": 0,
      "byteOffset": 65456,
      "byteLength": 26104
    }
  ],
  "images": [
    {
      "name": "4_25_tex",
      "mimeType": "image/jpeg",
      "bufferView": 4
    }
  ],
  "materials": [
    {
      "name": "default",
      "pbrMetallicRoughness": {
        "baseColorFactor": [
          1,
          1,
          1,
          1
        ],
        "metallicFactor": 0,
        "roughnessFactor": 1
      },
      "normalTexture": {
        "index": 0
      },
      "emissiveFactor": [
        0,
        0,
        0
      ],
      "alphaMode": "OPAQUE",
      "doubleSided": false
    }
  ],
  "meshes": [
    {
      "name": "hair-Mesh",
      "primitives": [
        {
          "attributes": {
            "POSITION": 0,
            "NORMAL": 1,
            "TEXCOORD_0": 2
          },
          "indices": 3,
          "material": 0,
          "mode": 4
        }
      ]
    },
    {
      "name": "body-Mesh",
      "primitives": [
        {
          "attributes": {
            "POSITION": 4,
            "NORMAL": 5,
            "TEXCOORD_0": 6
          },
          "indices": 7,
          "material": 0,
          "mode": 4
        }
      ]
    },
    {
      "name": "kutu_l-Mesh",
      "primitives": [
        {
          "attributes": {
            "POSITION": 8,
            "NORMAL": 9,
            "TEXCOORD_0": 10
          },
          "indices": 11,
          "material": 0,
          "mode": 4
        }
      ]
    },
    {
      "name": "kutu_r-Mesh",
      "primitives": [
        {
          "attributes": {
            "POSITION": 12,
            "NORMAL": 13,
            "TEXCOORD_0": 14
          },
          "indices": 15,
          "material": 0,
          "mode": 4
        }
      ]
    },
    {
      "name": "zubon-Mesh",
      "primitives": [
        {
          "attributes": {
            "POSITION": 16,
            "NORMAL": 17,
            "TEXCOORD_0": 18
          },
          "indices": 19,
          "material": 0,
          "mode": 4
        }
      ]
    },
    {
      "name": "uwagi-Mesh",
      "primitives": [
        {
          "attributes": {
            "POSITION": 20,
            "NORMAL": 21,
            "TEXCOORD_0": 22
          },
          "indices": 23,
          "material": 0,
          "mode": 4
        }
      ]
    },
    {
      "name": "mahu-Mesh",
      "primitives": [
        {
          "attributes": {
            "POSITION": 24,
            "NORMAL": 25,
            "TEXCOORD_0": 26
          },
          "indices": 27,
          "material": 0,
          "mode": 4
        }
      ]
    }
  ],
  "nodes": [
    {
      "name": "hair",
      "mesh": 0
    },
    {
      "name": "body",
      "mesh": 1
    },
    {
      "name": "kutu_l",
      "mesh": 2
    },
    {
      "name": "kutu_r",
      "mesh": 3
    },
    {
      "name": "zubon",
      "mesh": 4
    },
    {
      "name": "uwagi",
      "mesh": 5
    },
    {
      "name": "mahu",
      "mesh": 6
    }
  ],
  "samplers": [
    {
      "magFilter": 9729,
      "minFilter": 9986,
      "wrapS": 10497,
      "wrapT": 10497
    }
  ],
  "scene": 0,
  "scenes": [
    {
      "nodes": [
        0,
        1,
        2,
        3,
        4,
        5,
        6
      ]
    }
  ],
  "textures": [
    {
      "name": "4_25_tex",
      "sampler": 0,
      "source": 0
    }
  ]
}
